<?xml version="1.0" encoding="utf-8"?>
<!-- Generator: Adobe Illustrator 23.0.2, SVG Export Plug-In . SVG Version: 6.00 Build 0)  -->
<svg version="1.1" id="Layer_1" xmlns="http://www.w3.org/2000/svg" xmlns:xlink="http://www.w3.org/1999/xlink" x="0px" y="0px"
	 viewBox="0 0 469.3 469.3" style="enable-background:new 0 0 469.3 469.3;" xml:space="preserve">
<style type="text/css">
	.st0{fill:url(#SVGID_1_);}
	.st1{fill:url(#SVGID_2_);}
	.st2{fill:url(#SVGID_3_);}
	.st3{fill:url(#SVGID_4_);}
</style>
<g>
	<g>
		<g>
			<linearGradient id="SVGID_1_" gradientUnits="userSpaceOnUse" x1="133.3327" y1="298.667" x2="133.3327" y2="213.333">
				<stop  offset="0" style="stop-color:#CBA500"/>
				<stop  offset="6.542915e-02" style="stop-color:#CFA808"/>
				<stop  offset="0.7031" style="stop-color:#F1C54E"/>
				<stop  offset="1" style="stop-color:#FFD16A"/>
			</linearGradient>
			<path class="st0" d="M128,224c0-5.9-4.8-10.7-10.7-10.7s-10.7,4.8-10.7,10.7c0,28,30.9,66.5,34.4,70.8c2.1,2.6,5.2,3.9,8.3,3.9
				c2.4,0,4.8-0.8,6.8-2.4c4.6-3.7,5.2-10.5,1.5-15C146.1,267.3,128,239.4,128,224z"/>
			<linearGradient id="SVGID_2_" gradientUnits="userSpaceOnUse" x1="336.0019" y1="298.667" x2="336.0019" y2="213.333">
				<stop  offset="0" style="stop-color:#CBA500"/>
				<stop  offset="6.542915e-02" style="stop-color:#CFA808"/>
				<stop  offset="0.7031" style="stop-color:#F1C54E"/>
				<stop  offset="1" style="stop-color:#FFD16A"/>
			</linearGradient>
			<path class="st1" d="M352,213.3c-5.9,0-10.7,4.8-10.7,10.7c0,15.4-18.1,43.3-29.6,57.2c-3.7,4.6-3.1,11.3,1.5,15
				c2,1.6,4.4,2.4,6.8,2.4c3.1,0,6.1-1.3,8.3-3.9c3.5-4.3,34.4-42.8,34.4-70.8C362.7,218.1,357.9,213.3,352,213.3z"/>
			<linearGradient id="SVGID_3_" gradientUnits="userSpaceOnUse" x1="234.667" y1="298.667" x2="234.667" y2="213.333">
				<stop  offset="0" style="stop-color:#CBA500"/>
				<stop  offset="6.542915e-02" style="stop-color:#CFA808"/>
				<stop  offset="0.7031" style="stop-color:#F1C54E"/>
				<stop  offset="1" style="stop-color:#FFD16A"/>
			</linearGradient>
			<path class="st2" d="M234.7,213.3c-5.9,0-10.7,4.8-10.7,10.7v64c0,5.9,4.8,10.7,10.7,10.7s10.7-4.8,10.7-10.7v-64
				C245.3,218.1,240.6,213.3,234.7,213.3z"/>
			<linearGradient id="SVGID_4_" gradientUnits="userSpaceOnUse" x1="234.667" y1="469.333" x2="234.667" y2="-9.094947e-13">
				<stop  offset="0" style="stop-color:#CBA500"/>
				<stop  offset="6.542915e-02" style="stop-color:#CFA808"/>
				<stop  offset="0.7031" style="stop-color:#F1C54E"/>
				<stop  offset="1" style="stop-color:#FFD16A"/>
			</linearGradient>
			<path class="st3" d="M352,42.7c-6.5,0-13.2,0.9-20.2,2.2C308.3,17.4,273.5,0,234.7,0s-73.6,17.4-97.1,44.8
				c-7-1.3-13.8-2.2-20.2-2.2C52.6,42.7,0,95.3,0,160c0,44.3,25,84.6,64.3,104.6L64,425.8c0,11.6,4.5,22.6,12.7,30.8
				c8.2,8.2,19.2,12.8,30.8,12.8h254.3c24,0,43.5-19.5,43.5-43.5V264.4c39.1-20,64-60.2,64-104.4C469.3,95.3,416.7,42.7,352,42.7z
				 M384,425.8c0,12.2-10,22.2-22.2,22.2H107.6c-5.9,0-11.5-2.3-15.7-6.5c-4.2-4.2-6.5-9.8-6.5-15.7l0.1-41.8H384V425.8z
				 M390.6,247.8c-0.6,0.2-1.1,0.5-1.6,0.8c-1.3,0.8-2.4,1.9-3.3,3.2c-0.8,1.3-1.4,2.7-1.6,4.3c-0.1,0.6-0.1,1.2-0.1,1.8v104.8H85.5
				l0.1-104.6c0-0.6,0-1.2-0.1-1.8c-0.2-1.6-0.8-3.1-1.7-4.4c-0.8-1.2-1.9-2.3-3.2-3.1c-0.5-0.3-1.1-0.6-1.7-0.9
				c-35-15.3-57.6-49.8-57.6-87.9c0-52.9,43.1-96,96-96c2.1,0,4.3,0.3,6.4,0.4c-10.8,18.8-17.1,40.4-17.1,63.6
				c0,5.9,4.8,10.7,10.7,10.7S128,133.9,128,128c0-58.8,47.9-106.7,106.7-106.7S341.3,69.2,341.3,128c0,5.9,4.8,10.7,10.7,10.7
				s10.7-4.8,10.7-10.7c0-23.2-6.3-44.8-17.1-63.6c2.1-0.2,4.3-0.4,6.4-0.4c52.9,0,96,43.1,96,96C448,198,425.5,232.4,390.6,247.8z"
				/>
		</g>
	</g>
</g>
</svg>
